HIERARCHY
ROOT Hips
{
	OFFSET 0.000000 0.000000 0.000000
	CHANNELS 6 Xposition Yposition Zposition Xrotation Yrotation Zrotation
	JOINT LeftUpLeg_virtual
	{
		OFFSET 0.000000 0.000000 0.000000
		CHANNELS 3 Xrotation Yrotation Zrotation
		JOINT LeftUpLeg
		{
			OFFSET 10.205400 -3.823500 0.155100
			CHANNELS 3 Xrotation Yrotation Zrotation
			JOINT LeftLeg
			{
				OFFSET 0.708757 -12.982077 0.567790
				CHANNELS 3 Xrotation Yrotation Zrotation
				JOINT LeftFoot
				{
					OFFSET -0.708756 -10.717838 -2.184338
					CHANNELS 3 Xrotation Yrotation Zrotation
					JOINT LeftToeBase
					{
						OFFSET 0.108149 -7.191104 7.560241
						CHANNELS 3 Xrotation Yrotation Zrotation
						JOINT LeftToe_End
						{
							OFFSET 0.070230 0.081724 4.490308
							CHANNELS 3 Xrotation Yrotation Zrotation
							End Site
							{
								OFFSET 0 0 0
							}
						}
					}
				}
			}
		}
	}
	JOINT RightUpLeg_virtual
	{
		OFFSET 0.000000 0.000000 0.000000
		CHANNELS 3 Xrotation Yrotation Zrotation
		JOINT RightUpLeg
		{
			OFFSET -10.205400 -3.823500 0.005500
			CHANNELS 3 Xrotation Yrotation Zrotation
			JOINT RightLeg
			{
				OFFSET -0.708756 -12.982134 0.610632
				CHANNELS 3 Xrotation Yrotation Zrotation
				JOINT RightFoot
				{
					OFFSET 0.708754 -10.717769 -1.945823
					CHANNELS 3 Xrotation Yrotation Zrotation
					JOINT RightToeBase
					{
						OFFSET -0.108140 -7.191069 7.372968
						CHANNELS 3 Xrotation Yrotation Zrotation
						JOINT RightToe_End
						{
							OFFSET -0.070227 0.081735 4.479403
							CHANNELS 3 Xrotation Yrotation Zrotation
							End Site
							{
								OFFSET 0 0 0
							}
						}
					}
				}
			}
		}
	}
	JOINT Spine_virtual
	{
		OFFSET 0.000000 0.000000 0.000000
		CHANNELS 3 Xrotation Yrotation Zrotation
		JOINT Spine
		{
			OFFSET 0.000000 6.876099 0.125700
			CHANNELS 3 Xrotation Yrotation Zrotation
			JOINT Spine1
			{
				OFFSET 0.000000 5.730043 0.104720
				CHANNELS 3 Xrotation Yrotation Zrotation
				JOINT Spine1_split
				{
					OFFSET 0.000000 5.730043 0.104720
					CHANNELS 3 Xrotation Yrotation Zrotation
					JOINT Spine2
					{
						OFFSET 0.000000 5.730043 0.104720
						CHANNELS 3 Xrotation Yrotation Zrotation
						JOINT Neck_virtual
						{
							OFFSET 0.000000 0.000000 0.000000
							CHANNELS 3 Xrotation Yrotation Zrotation
							JOINT Neck
							{
								OFFSET 0.000000 10.314075 0.188496
								CHANNELS 3 Xrotation Yrotation Zrotation
								JOINT Head
								{
									OFFSET 0.000000 7.643700 -2.377400
									CHANNELS 3 Xrotation Yrotation Zrotation
									JOINT HeadTop_End
									{
										OFFSET 0.000000 43.788605 -13.619600
										CHANNELS 3 Xrotation Yrotation Zrotation
										End Site
										{
											OFFSET 0 0 0
										}
									}
								}
							}
						}
						JOINT LeftShoulder_virtual
						{
							OFFSET 0.000000 0.000000 0.000000
							CHANNELS 3 Xrotation Yrotation Zrotation
							JOINT LeftShoulder
							{
								OFFSET 2.196100 4.412489 0.087492
								CHANNELS 3 Xrotation Yrotation Zrotation
								JOINT LeftShoulder_split
								{
									OFFSET 2.196100 4.412489 0.087492
									CHANNELS 3 Xrotation Yrotation Zrotation
									JOINT LeftArm
									{
										OFFSET 8.771219 -2.981674 -0.026999
										CHANNELS 3 Xrotation Yrotation Zrotation
										JOINT LeftForeArm
										{
											OFFSET 8.512804 0.000000 -0.000000
											CHANNELS 3 Xrotation Yrotation Zrotation
											JOINT LeftHand
											{
												OFFSET 18.484802 0.000000 -0.000000
												CHANNELS 3 Xrotation Yrotation Zrotation
												End Site
												{
													OFFSET 0 0 0
												}
											}
										}
									}
								}
							}
						}
						JOINT RightShoulder_virtual
						{
							OFFSET 0.000000 0.000000 0.000000
							CHANNELS 3 Xrotation Yrotation Zrotation
							JOINT RightShoulder
							{
								OFFSET -2.196100 4.412496 0.070690
								CHANNELS 3 Xrotation Yrotation Zrotation
								JOINT RightShoulder_split
								{
									OFFSET -2.196100 4.412496 0.070690
									CHANNELS 3 Xrotation Yrotation Zrotation
									JOINT RightArm
									{
										OFFSET -8.771282 -2.981682 -0.094208
										CHANNELS 3 Xrotation Yrotation Zrotation
										JOINT RightForeArm
										{
											OFFSET -8.494598 0.000000 0.000000
											CHANNELS 3 Xrotation Yrotation Zrotation
											JOINT RightHand
											{
												OFFSET -18.483803 0.000000 0.000001
												CHANNELS 3 Xrotation Yrotation Zrotation
												End Site
												{
													OFFSET 0 0 0
												}
											}
										}
									}
								}
							}
						}
					}
				}
			}
		}
	}
}
MOTION
Frames: 4
Frame Time: 0.03333333
1.672385 26.743092 -1.609804 0.000000 0.000000 0.000000 2.732684 -53.396237 2.776088 -51.859383 -8.416892 31.063704 53.471751 -8.554890 0.446531 -3.095778 -5.768106 -26.660448 -1.836444 -0.000615 -0.000033 0.000000 0.000000 0.000000 2.732684 -53.396237 2.776088 -29.197378 -19.807636 -51.218964 57.292269 18.390747 -1.926632 -29.674433 -10.544759 28.761080 -0.001649 -0.000370 0.000017 0.000000 0.000000 0.000000 2.732684 -53.396237 2.776088 8.756916 10.553360 -2.012653 3.497973 3.507878 -2.049955 0.000000 0.000000 0.000000 0.000000 0.000000 0.000000 3.552507 3.473949 -2.029868 1.529309 1.229488 6.799902 -2.678848 31.005729 -6.720909 0.000000 0.000000 0.000000 3.552507 3.473949 -2.029868 0.471076 -5.933848 -15.232036 0.000000 0.000000 0.000000 -16.907898 -33.002593 -20.091604 6.582927 -71.738932 6.768181 0.000000 0.000000 0.000000 3.552507 3.473949 -2.029868 -0.291983 14.898135 -21.620925 0.000000 0.000000 0.000000 -49.742413 22.304999 28.209731 -170.021153 81.192685 169.920763 0.000000 0.000000 0.000000 
1.717348 26.853294 -1.614475 0.000000 0.000000 0.000000 3.398433 -54.647285 3.353755 -51.330234 -7.490037 31.914383 53.249873 -9.181063 0.381088 -3.527096 -4.792404 -26.556675 -1.836443 -0.000620 -0.000034 0.000000 0.000000 0.000000 3.398433 -54.647285 3.353755 -30.370173 -18.569259 -50.570181 57.378316 18.700657 -1.968407 -28.915828 -10.481298 28.211446 -0.001645 -0.000370 0.000017 0.000000 0.000000 0.000000 3.398433 -54.647285 3.353755 9.826629 11.469126 -3.423091 3.653229 3.854104 -2.359846 0.000000 0.000000 0.000000 0.000000 0.000000 0.000000 3.709200 3.818432 -2.343582 0.899336 1.122430 7.046561 -5.163758 30.506459 -5.717717 0.000000 0.000000 0.000000 3.709200 3.818432 -2.343582 0.197263 -6.582472 -15.090465 0.000000 0.000000 0.000000 -21.316551 -37.047025 -24.029990 -2.140557 -74.216549 -1.661965 0.000000 0.000000 0.000000 3.709200 3.818432 -2.343582 3.715132 19.150254 -15.155083 0.000000 0.000000 0.000000 -26.887875 25.917115 16.996470 -171.948728 72.846426 172.094157 0.000000 0.000000 0.000000 
1.754670 26.972103 -1.609953 0.000000 0.000000 0.000000 3.965476 -56.065509 3.703211 -50.547891 -6.772639 32.975989 53.211955 -9.643425 0.322031 -4.201333 -3.799397 -26.612213 -1.836439 -0.000623 -0.000034 0.000000 0.000000 0.000000 3.965476 -56.065509 3.703211 -31.663217 -17.624917 -49.936080 57.197015 17.953612 -2.086671 -27.847743 -9.094174 28.277267 -0.001648 -0.000370 0.000017 0.000000 0.000000 0.000000 3.965476 -56.065509 3.703211 11.038620 12.240070 -4.613410 3.882947 4.155491 -2.595622 0.000000 0.000000 0.000000 0.000000 0.000000 0.000000 3.940184 4.114869 -2.582868 0.077773 1.097567 7.089561 -9.455428 30.205887 -4.759084 0.000000 0.000000 0.000000 3.940184 4.114869 -2.582868 0.273682 -7.175083 -13.814881 0.000000 0.000000 0.000000 -27.151313 -40.609323 -28.235273 -1.969242 -72.750148 -1.517586 0.000000 0.000000 0.000000 3.940184 4.114869 -2.582868 2.514178 21.233549 -6.811744 0.000000 0.000000 0.000000 -5.943706 30.749942 2.272449 -179.151928 73.423810 179.050049 0.000000 0.000000 0.000000 
1.829936 27.143280 -1.605627 0.000000 0.000000 0.000000 4.500586 -58.110362 3.949229 -49.215106 -5.814154 34.426295 53.130911 -10.244658 0.237015 -5.141989 -2.317418 -26.719365 -1.836443 -0.000625 -0.000034 0.000000 0.000000 0.000000 4.500586 -58.110362 3.949229 -33.386282 -16.477990 -48.845640 56.756123 18.977875 -2.119188 -26.264854 -8.847524 27.146058 -0.001651 -0.000371 0.000017 0.000000 0.000000 0.000000 4.500586 -58.110362 3.949229 12.181392 12.111026 -5.690787 4.167033 4.169346 -2.813601 0.000000 0.000000 0.000000 0.000000 0.000000 0.000000 4.213592 4.134002 -2.809066 -0.982840 1.275624 6.942999 -12.696570 31.538801 -4.386468 0.000000 0.000000 0.000000 4.213592 4.134002 -2.809066 0.469995 -7.672766 -11.958917 0.000000 0.000000 0.000000 -32.668341 -40.481111 -29.999294 -2.290927 -72.441977 -1.843381 0.000000 0.000000 0.000000 4.213592 4.134002 -2.809066 1.947810 20.533126 -7.026567 0.000000 0.000000 0.000000 -2.633532 35.447507 2.378802 -179.601327 76.885404 179.927086 0.000000 0.000000 0.000000 
